<svg width="124" height="40" viewBox="0 0 124 40" fill="none" xmlns="http://www.w3.org/2000/svg">
<path d="M92.5062 26.6484H100.118L95.7437 18.9273C96.2705 18.7474 96.7651 18.5354 97.2404 18.3042C93.3991 17.4819 89.5385 16.7882 85.6972 16.2293C85.6779 16.2293 87.6564 6.65174 87.6564 6.65174H91.4784C93.9772 6.65174 95.5253 7.6474 95.5253 9.81215C95.5253 11.5658 94.7995 12.8248 93.489 13.5314C95.8401 14.026 98.1847 14.5656 100.484 15.1566C100.639 15.1951 100.793 15.2401 100.947 15.2786C102.193 13.6021 102.874 11.5144 102.874 9.1184C102.874 3.97309 99.084 0.921875 92.5062 0.921875H81.6375C81.554 1.33941 76.3701 26.6549 76.3701 26.6549H83.6481L85.0099 19.8137H88.6842L92.5062 26.6484Z" fill="white"/>
<path d="M59.2898 14.4564C59.2127 14.4564 59.1421 14.4564 59.0714 14.4629L56.624 26.6484H63.902L65.2381 19.9936L65.7777 17.3214L66.3429 14.5014C64.8591 14.4564 63.3817 14.4372 61.9364 14.4372C61.0692 14.4372 60.1763 14.4436 59.2898 14.4564Z" fill="white"/>
<path d="M59.9324 10.1462C60.382 10.1398 60.8381 10.1398 61.2942 10.1398C63.1827 10.1398 65.1098 10.1783 67.0305 10.249C67.0819 10.249 67.1397 10.2554 67.1911 10.2554L67.9105 6.68385H75.7794L76.955 0.909027H53.9006L52.7251 6.68385H60.6326L59.9324 10.1462Z" fill="white"/>
<path d="M21.4162 33.7594C21.4162 33.162 21.9108 32.6931 23.1249 32.6931C23.8122 32.6931 24.5895 32.8986 25.2961 33.3097L25.7586 32.1727C25.0712 31.7231 24.082 31.4726 23.1377 31.4726C20.9794 31.4726 19.9645 32.5517 19.9645 33.8236C19.9645 36.7464 24.6473 35.6351 24.6473 37.3309C24.6473 37.9154 24.127 38.3523 22.9 38.3523C21.9301 38.3523 20.928 37.9925 20.2985 37.4851L19.791 38.622C20.4462 39.1873 21.6731 39.5663 22.8936 39.5663C25.052 39.5663 26.0797 38.4872 26.0797 37.2281C26.0862 34.3439 21.4162 35.4359 21.4162 33.7594Z" fill="white"/>
<path d="M41.8498 31.5882H40.3916V39.4635H45.9673V38.2238H41.8498V31.5882Z" fill="white"/>
<path d="M54.0934 35.9755C54.0934 37.5943 53.3739 38.2944 52.1021 38.2944C50.8302 38.2944 50.0979 37.5943 50.0979 35.9755V31.5882H48.6333V36.0333C48.6333 38.3266 49.9244 39.5792 52.0892 39.5792C54.2411 39.5792 55.5323 38.333 55.5323 36.0333V31.5882H54.0934V35.9755Z" fill="white"/>
<path d="M58.1143 32.8215H60.7222V39.4635H62.1868V32.8215H64.7948V31.5882H58.1143V32.8215Z" fill="white"/>
<path d="M69.0539 31.5882H67.5894V39.4635H69.0539V31.5882Z" fill="white"/>
<path d="M32.908 31.4726C30.4671 31.4726 28.6685 33.1941 28.6685 35.5259C28.6685 37.8576 30.4671 39.5792 32.908 39.5792C35.349 39.5792 37.1476 37.8705 37.1476 35.5259C37.1476 33.1812 35.349 31.4726 32.908 31.4726ZM32.908 38.2944C31.3214 38.2944 30.1395 37.1382 30.1395 35.5259C30.1395 33.92 31.3214 32.7573 32.908 32.7573C34.4947 32.7573 35.6766 33.9135 35.6766 35.5259C35.6766 37.1318 34.4947 38.2944 32.908 38.2944Z" fill="white"/>
<path d="M76.5438 31.4726C74.1028 31.4726 72.3042 33.1941 72.3042 35.5259C72.3042 37.8576 74.1028 39.5792 76.5438 39.5792C78.9848 39.5792 80.7834 37.8705 80.7834 35.5259C80.7834 33.1812 78.9848 31.4726 76.5438 31.4726ZM76.5438 38.2944C74.9572 38.2944 73.7752 37.1382 73.7752 35.5259C73.7752 33.92 74.9572 32.7573 76.5438 32.7573C78.1304 32.7573 79.3124 33.9135 79.3124 35.5259C79.3124 37.1318 78.1304 38.2944 76.5438 38.2944Z" fill="white"/>
<path d="M89.5709 36.9198L85.2286 31.5882H84.0273V39.4635H85.4791V34.1255L89.8214 39.4635H91.0227V31.5882H89.5709V36.9198Z" fill="white"/>
<path d="M95.7824 33.7594C95.7824 33.162 96.277 32.6931 97.4911 32.6931C98.1784 32.6931 98.9557 32.8986 99.6623 33.3097L100.125 32.1727C99.4374 31.7231 98.4482 31.4726 97.5039 31.4726C95.3456 31.4726 94.3307 32.5517 94.3307 33.8236C94.3307 36.7464 99.0135 35.6351 99.0135 37.3309C99.0135 37.9154 98.4932 38.3523 97.2662 38.3523C96.2963 38.3523 95.2942 37.9925 94.6647 37.4851L94.1572 38.622C94.8124 39.1873 96.0393 39.5663 97.2598 39.5663C99.4182 39.5663 100.446 38.4872 100.446 37.2281C100.452 34.3439 95.7824 35.4359 95.7824 33.7594Z" fill="white"/>
<path d="M121.618 23.0769C121.522 23.032 121.426 22.987 121.329 22.9356C117.584 21.1498 112.58 19.2677 107.229 17.6361C104.994 16.9488 102.675 16.3 100.343 15.7026C97.4526 14.9639 94.4849 14.2958 91.5301 13.7113L87.1363 12.8762L86.5518 15.7476C90.5729 16.3514 94.4207 17.0965 98.4354 17.9766C101.589 18.6703 104.731 19.4476 107.775 20.2826C112.381 21.5481 116.833 22.9741 121.008 24.503C121.098 24.5351 121.194 24.5543 121.284 24.5543C121.593 24.5543 121.862 24.3745 121.991 24.079C122.158 23.6936 121.991 23.2632 121.618 23.0769Z" fill="#37A6CD"/>
<path d="M78.4642 12.3238C78.5092 12.099 78.5606 11.8677 78.6055 11.6429C74.9376 11.2382 70.6145 10.9684 67.0109 10.8271C64.5635 10.7307 62.1161 10.6986 59.733 10.7243C56.0908 10.7629 52.8276 10.9491 49.468 11.2382C49.5066 12.2981 49.4423 13.3644 49.2817 14.4179C52.7376 14.1288 55.8531 13.949 59.2769 13.8912C60.1698 13.8783 61.0626 13.8655 61.9298 13.8655C63.433 13.8655 64.981 13.8912 66.5227 13.9361C70.0685 14.0453 74.3402 14.2766 77.9824 14.6299C78.143 13.859 78.3036 13.0882 78.4642 12.3238Z" fill="#37A6CD"/>
<path d="M48.6269 10.4481C48.6077 10.2104 48.582 9.97273 48.5498 9.73506C48.5434 9.70937 48.5434 9.68367 48.537 9.65798C48.5306 9.59374 48.5177 9.53593 48.5113 9.47169C48.492 9.35607 48.4728 9.24686 48.4535 9.13124C48.4278 8.99634 48.4021 8.85502 48.37 8.72013C47.0853 3.73541 42.5823 0.452942 35.9531 0.452942C26.504 0.452942 19.8877 6.96006 19.8877 15.8953C19.8877 15.9081 19.8877 15.921 19.8877 15.9338C22.258 15.2722 24.6861 14.662 27.095 14.1095L27.3262 14.0517C27.853 9.83141 30.7821 6.47829 35.3301 6.47829C39.1906 6.47829 41.3939 8.79721 41.3939 12.2146C41.3939 17.0708 38.3427 21.1819 33.3066 21.1819C30.5252 21.1819 28.6045 19.9807 27.7502 18.0344L27.7181 18.0408C25.3285 18.5226 22.9068 19.0621 20.5236 19.6338C20.5044 19.6403 20.4915 19.6403 20.4722 19.6467C21.9882 24.2331 26.3691 27.2137 32.6835 27.2137C38.5226 27.2137 43.2761 24.7278 46.0575 20.7259C46.0575 20.7194 46.0639 20.7194 46.0639 20.713C46.1988 20.5075 46.3273 20.3019 46.4493 20.0963C46.6998 19.666 46.9311 19.2292 47.1431 18.7795C47.1945 18.6639 47.2523 18.5483 47.3037 18.4326C47.3229 18.3812 47.3486 18.3363 47.3679 18.2849C47.3679 18.2849 47.3679 18.2785 47.3743 18.2785C47.3808 18.2656 47.3872 18.2463 47.3936 18.2335C47.49 18.0087 47.5735 17.7774 47.657 17.5526C47.9974 16.6212 48.2544 15.6641 48.4278 14.6941C48.4278 14.6877 48.4278 14.6812 48.4342 14.6748C48.4535 14.5592 48.4728 14.4371 48.492 14.3215C48.5049 14.2573 48.5113 14.193 48.5177 14.1352C48.5242 14.1095 48.5242 14.0581 48.5306 14.0196C48.5242 14.0517 48.5306 14.071 48.537 14.0003C48.537 13.9875 48.5434 13.9811 48.5434 13.9746C48.5498 13.9489 48.5499 13.9233 48.5563 13.8911C48.5627 13.8397 48.5691 13.7819 48.5755 13.7305C48.5884 13.6149 48.6012 13.4993 48.6141 13.3772C48.659 12.8826 48.6847 12.388 48.6847 11.8934C48.6847 11.8741 48.6847 11.8548 48.6847 11.8292C48.6847 11.3731 48.6655 10.9106 48.6269 10.4481Z" fill="white"/>
<path d="M20.395 19.0943C22.7653 18.5226 25.1742 17.9894 27.5509 17.5076C27.5702 17.5012 27.5895 17.5012 27.6087 17.4948L28.0456 17.4049L28.1419 17.3856L28.3667 17.3278L28.7008 17.2571C31.964 16.5569 35.5869 15.8311 39.9357 15.2465L40.2247 15.208L40.2954 14.9189C40.4752 14.1545 40.5844 13.358 40.6037 12.5358L40.6166 12.0283L40.1091 12.0989C36.1072 12.6707 32.7155 13.3772 29.0348 14.2444C28.6173 14.3408 28.1997 14.4436 27.7758 14.5463L27.2683 14.6684L27.2298 14.6812C24.7759 15.2401 22.3093 15.8696 19.9004 16.5377H19.894C19.6563 16.6019 19.4186 16.6726 19.181 16.7368C18.0633 17.0516 16.9584 17.3792 15.8728 17.7132C9.23722 19.7623 4.69573 21.6444 2.05562 22.8649C1.67021 23.0448 1.50319 23.4687 1.66378 23.8606C1.78583 24.1625 2.05562 24.3488 2.37038 24.3488C2.46031 24.3488 2.55024 24.3359 2.64017 24.3038C6.80267 22.8457 11.2028 21.4967 15.7122 20.2891C16.9713 19.9486 18.2624 19.621 19.56 19.2998C19.8105 19.2356 20.0674 19.1778 20.318 19.1135C20.3372 19.1071 20.3629 19.1007 20.395 19.0943Z" fill="#37A6CD"/>
<path d="M104.898 33.708C104.647 33.9585 104.339 34.0806 103.966 34.0806C103.594 34.0806 103.285 33.9585 103.035 33.708C102.784 33.4575 102.662 33.1491 102.662 32.7766C102.662 32.404 102.784 32.0957 103.035 31.8451C103.285 31.5946 103.594 31.4726 103.966 31.4726C104.339 31.4726 104.647 31.5946 104.898 31.8451C105.148 32.0957 105.27 32.404 105.27 32.7766C105.27 33.1427 105.148 33.4575 104.898 33.708ZM103.202 33.5474C103.401 33.7529 103.658 33.8557 103.966 33.8557C104.274 33.8557 104.525 33.7529 104.724 33.5474C104.923 33.3418 105.026 33.0849 105.026 32.7766C105.026 32.4682 104.923 32.2113 104.724 32.0057C104.525 31.8002 104.268 31.6974 103.966 31.6974C103.658 31.6974 103.407 31.8002 103.202 32.0057C103.003 32.2113 102.9 32.4682 102.9 32.7766C102.9 33.0849 103.003 33.3418 103.202 33.5474ZM103.427 33.541V32.0121H104.101C104.255 32.0121 104.371 32.0571 104.448 32.147C104.525 32.237 104.557 32.3398 104.557 32.4618C104.557 32.5646 104.525 32.6609 104.467 32.7444C104.403 32.8279 104.319 32.8858 104.21 32.9115L104.57 33.541H104.281L103.953 32.9243H103.677V33.541H103.427ZM103.683 32.6931H104.107C104.172 32.6931 104.223 32.6738 104.262 32.6288C104.294 32.5838 104.313 32.5325 104.313 32.4618C104.313 32.404 104.294 32.3526 104.262 32.3141C104.229 32.2691 104.178 32.2498 104.107 32.2498H103.683V32.6931Z" fill="white"/>
</svg>
