<svg width="603" height="221" viewBox="0 0 603 221" fill="none" xmlns="http://www.w3.org/2000/svg"><path d="M509.43 131.956H539.091V77.769C539.091 65.409 546.316 56.662 556.963 56.662C567.23 56.662 572.554 63.889 572.554 74.157V131.957H602.215V68.454C602.215 46.966 589.287 31.755 568.371 31.755C555.063 31.755 545.745 37.46 538.71 47.917H538.139V34.608H509.429V131.956H509.43ZM451.248 31.945C420.255 31.945 399.532 54.191 399.532 83.472C399.532 112.564 420.256 135 451.248 135C482.24 135 502.964 112.564 502.964 83.472C502.964 54.19 482.24 31.945 451.248 31.945ZM451.058 113.133C436.986 113.133 429.573 101.346 429.573 83.472C429.573 65.409 436.986 53.81 451.058 53.81C465.127 53.81 472.923 65.408 472.923 83.472C472.923 101.346 465.127 113.133 451.058 113.133ZM315.11 131.956H398.39V108.571H351.237V107.998L396.299 57.422V34.608H315.11V57.993H360.743V58.564L315.11 109.52V131.956ZM277.079 131.956H306.93V34.608H277.079V131.956ZM207.869 131.956H237.53V87.276C237.53 66.93 249.699 57.993 268.332 60.466H268.903V34.798C267.381 34.227 265.671 34.037 262.819 34.037C251.221 34.037 243.425 39.36 236.769 50.768H236.198V34.608H207.869V131.956ZM153.301 113.325C140.181 113.325 132.196 104.766 130.674 91.65H200.834C201.024 70.732 195.509 54 183.911 43.543C175.737 35.938 164.897 31.754 151.208 31.754C121.929 31.754 101.583 54 101.583 83.091C101.583 112.371 120.977 134.807 153.11 134.807C165.279 134.807 174.975 131.575 182.961 126.06C191.518 120.169 197.601 111.61 199.311 103.055H170.792C167.941 109.52 162.046 113.325 153.301 113.325ZM151.779 53.049C162.236 53.049 169.461 60.847 170.602 72.254H130.864C133.147 60.654 139.42 53.049 151.779 53.049ZM277.079 0H306.93V26.43H277.079V0Z" fill="#F50A23"></path><path d="M66.851 130.745L29.943 34.608H0L36.908 130.745C37.188 131.478 37.891 131.958 38.673 131.958H68.616C67.834 131.958 67.131 131.478 66.851 130.745Z" fill="url(#paint0_radial_1_152)"></path><path d="M40.437 130.745L77.345 34.608H107.288L70.38 130.745C70.1 131.478 69.397 131.958 68.615 131.958H38.672C39.455 131.958 40.158 131.478 40.437 130.745Z" fill="#F50A23"></path><path d="M266.357 218.776C263.196 217.344 260.508 215.372 258.295 212.864C256.079 210.356 254.368 207.423 253.165 204.067C251.957 200.713 251.357 197.113 251.357 193.267C251.357 189.49 251.957 185.923 253.165 182.565C254.368 179.211 256.079 176.279 258.295 173.771C260.509 171.263 263.196 169.291 266.357 167.857C269.518 166.425 273.053 165.707 276.962 165.707C283.282 165.707 288.412 167.354 292.355 170.642C296.298 173.934 298.722 178.412 299.636 184.082H290.547C289.897 180.629 288.431 177.925 286.149 175.97C283.869 174.014 280.806 173.038 276.963 173.038C274.291 173.038 271.93 173.561 269.877 174.602C267.824 175.644 266.115 177.079 264.747 178.903C263.379 180.727 262.352 182.878 261.668 185.354C260.984 187.831 260.642 190.468 260.642 193.269C260.642 196.138 260.984 198.791 261.668 201.234C262.352 203.679 263.379 205.814 264.747 207.635C266.116 209.461 267.824 210.896 269.877 211.936C271.93 212.978 274.291 213.5 276.963 213.5C281.069 213.5 284.309 212.376 286.689 210.128C289.066 207.88 290.417 204.803 290.745 200.892H299.736C299.149 207.214 296.883 212.131 292.943 215.65C289 219.169 283.673 220.927 276.963 220.927C273.053 220.926 269.518 220.208 266.357 218.776Z" fill="#F50A23"></path><path d="M319.135 218.776C315.974 217.344 313.286 215.372 311.073 212.864C308.857 210.356 307.146 207.423 305.941 204.067C304.735 200.713 304.133 197.113 304.133 193.267C304.133 189.49 304.736 185.923 305.941 182.565C307.147 179.211 308.857 176.279 311.073 173.771C313.287 171.263 315.974 169.291 319.135 167.857C322.294 166.425 325.863 165.707 329.837 165.707C333.809 165.707 337.362 166.425 340.489 167.857C343.616 169.291 346.288 171.263 348.504 173.771C350.718 176.279 352.413 179.212 353.587 182.565C354.759 185.923 355.345 189.49 355.345 193.267C355.345 197.112 354.758 200.713 353.587 204.067C352.413 207.423 350.718 210.355 348.504 212.864C346.288 215.372 343.616 217.344 340.489 218.776C337.362 220.208 333.809 220.926 329.837 220.926C325.862 220.926 322.293 220.208 319.135 218.776ZM336.825 211.935C338.876 210.895 340.587 209.461 341.955 207.634C343.324 205.812 344.35 203.678 345.034 201.233C345.718 198.79 346.058 196.137 346.058 193.268C346.058 190.467 345.718 187.83 345.034 185.353C344.35 182.876 343.323 180.71 341.955 178.852C340.586 176.996 338.876 175.546 336.825 174.504C334.772 173.462 332.409 172.94 329.739 172.94C327.065 172.94 324.704 173.461 322.653 174.504C320.6 175.546 318.889 176.997 317.521 178.852C316.152 180.71 315.128 182.876 314.444 185.353C313.76 187.83 313.418 190.467 313.418 193.268C313.418 196.137 313.76 198.79 314.444 201.233C315.128 203.678 316.153 205.813 317.521 207.634C318.89 209.46 320.6 210.895 322.653 211.935C324.704 212.977 327.065 213.499 329.739 213.499C332.409 213.498 334.772 212.977 336.825 211.935Z" fill="#F50A23"></path><path d="M372.351 174.405C374.239 171.733 376.518 169.617 379.192 168.051C381.861 166.487 385.12 165.706 388.965 165.706C394.501 165.706 398.836 167.172 401.963 170.104C405.09 173.036 406.654 177.274 406.654 182.809V219.459H397.663V183.885C397.663 180.497 396.639 177.889 394.586 176.065C392.533 174.241 389.714 173.328 386.132 173.328C384.111 173.328 382.239 173.67 380.512 174.354C378.785 175.038 377.301 176.001 376.066 177.239C374.826 178.476 373.866 179.974 373.181 181.735C372.497 183.493 372.155 185.417 372.155 187.5V219.46H363.066V166.977H372.057V174.405H372.351Z" fill="#F50A23"></path><path d="M426.203 174.405C428.091 171.733 430.37 169.617 433.044 168.051C435.713 166.487 438.972 165.706 442.817 165.706C448.353 165.706 452.688 167.172 455.815 170.104C458.942 173.036 460.506 177.274 460.506 182.809V219.459H451.515V183.885C451.515 180.497 450.491 177.889 448.438 176.065C446.385 174.241 443.566 173.328 439.984 173.328C437.963 173.328 436.091 173.67 434.364 174.354C432.637 175.038 431.153 176.001 429.918 177.239C428.678 178.476 427.718 179.974 427.033 181.735C426.349 183.493 426.007 185.417 426.007 187.5V219.46H416.918V166.977H425.909V174.405H426.203Z" fill="#F50A23"></path><path d="M482.742 218.776C479.581 217.344 476.893 215.372 474.677 212.864C472.463 210.356 470.784 207.423 469.644 204.067C468.504 200.713 467.933 197.113 467.933 193.267C467.933 189.49 468.536 185.923 469.741 182.565C470.947 179.211 472.639 176.279 474.824 173.771C477.006 171.263 479.646 169.291 482.741 167.857C485.834 166.425 489.272 165.707 493.051 165.707C496.96 165.707 500.413 166.425 503.411 167.857C506.407 169.291 508.947 171.279 511.034 173.819C513.184 176.427 514.798 179.554 515.872 183.202C516.946 186.85 517.485 190.922 517.485 195.418H477.218C477.413 197.958 477.902 200.337 478.684 202.554C479.466 204.768 480.54 206.692 481.909 208.319C483.278 209.948 484.939 211.219 486.894 212.13C488.847 213.043 491.095 213.499 493.638 213.499C497.286 213.499 500.298 212.701 502.677 211.106C505.056 209.508 506.667 207.31 507.515 204.507H516.409C515.237 209.395 512.647 213.353 508.639 216.383C504.633 219.413 499.6 220.926 493.541 220.926C489.499 220.926 485.9 220.208 482.742 218.776ZM486.798 173.966C484.972 174.782 483.408 175.906 482.105 177.338C480.802 178.772 479.76 180.465 478.978 182.421C478.196 184.374 477.675 186.525 477.414 188.87H507.81C507.547 183.787 506.163 179.831 503.656 176.996C501.145 174.161 497.61 172.745 493.051 172.745C490.707 172.744 488.62 173.152 486.798 173.966Z" fill="#F50A23"></path><path d="M537.375 218.776C534.214 217.344 531.526 215.372 529.313 212.864C527.097 210.356 525.386 207.423 524.18 204.067C522.974 200.713 522.372 197.113 522.372 193.267C522.372 189.49 522.975 185.923 524.18 182.565C525.386 179.211 527.096 176.279 529.313 173.771C531.527 171.263 534.214 169.291 537.375 167.857C540.534 166.425 544.069 165.707 547.98 165.707C554.298 165.707 559.43 167.354 563.373 170.642C567.314 173.934 569.74 178.412 570.654 184.082H561.565C560.912 180.629 559.446 177.925 557.167 175.97C554.885 174.014 551.824 173.038 547.981 173.038C545.307 173.038 542.946 173.561 540.895 174.602C538.842 175.644 537.131 177.079 535.762 178.903C534.393 180.727 533.369 182.878 532.685 185.354C532.001 187.831 531.659 190.468 531.659 193.269C531.659 196.138 532.001 198.791 532.685 201.234C533.369 203.679 534.394 205.814 535.762 207.635C537.131 209.461 538.842 210.896 540.895 211.936C542.946 212.978 545.307 213.5 547.981 213.5C552.085 213.5 555.325 212.376 557.704 210.128C560.081 207.88 561.434 204.803 561.76 200.892H570.751C570.164 207.214 567.9 212.131 563.96 215.65C560.015 219.169 554.69 220.927 547.98 220.927C544.068 220.926 540.534 220.208 537.375 218.776Z" fill="#F50A23"></path><path d="M582.967 166.977V150.46H591.958V166.977H602.808V174.013H591.958V207.146C591.958 209.036 592.432 210.323 593.377 211.005C594.32 211.689 595.638 212.031 597.336 212.031C598.118 212.031 598.947 211.952 599.826 211.786C600.707 211.625 601.405 211.478 601.929 211.346H602.221V218.971C599.744 219.556 597.302 219.85 594.891 219.85C591.374 219.784 588.505 218.955 586.292 217.357C584.076 215.762 582.968 213.04 582.968 209.197V174.011H574.758V166.975H582.967V166.977Z" fill="#F50A23"></path><defs><radialGradient id="paint0_radial_1_152" cx="0" cy="0" r="1" gradientUnits="userSpaceOnUse" gradientTransform="translate(62.461 115.24) rotate(-70.1479) scale(51.6536 55.8801)"><stop stop-color="#F5FF1E"></stop><stop offset="0.257" stop-color="#F5FF1E"></stop><stop offset="0.2655" stop-color="#F5FA1E"></stop><stop offset="0.423" stop-color="#F5A620"></stop><stop offset="0.5621" stop-color="#F56321"></stop><stop offset="0.6779" stop-color="#F53322"></stop><stop offset="0.7657" stop-color="#F51523"></stop><stop offset="0.8155" stop-color="#F50A23"></stop></radialGradient></defs></svg>