<?xml version="1.0" encoding="UTF-8"?>
<svg xmlns="http://www.w3.org/2000/svg" xmlns:xlink="http://www.w3.org/1999/xlink" id="Layer_1" data-name="Layer 1" viewBox="0 0 1532.93 159.15">
  <defs>
    <style>.cls-1{fill:url(#New_Gradient_Swatch_copy_3);}.cls-2{fill:#929497;}.cls-3{fill:#404041;}.cls-4{fill:#6d6e70;}</style>
    <linearGradient id="New_Gradient_Swatch_copy_3" x1="385.63" y1="9.36" x2="385.63" y2="101.8" gradientUnits="userSpaceOnUse">
      <stop offset="0" stop-color="#2e2e78"></stop>
      <stop offset="0.11" stop-color="#2e2e78"></stop>
      <stop offset="1" stop-color="#692c81"></stop>
    </linearGradient>
  </defs>
  <title>Fleet Solutions Omnitracs</title>
  <path class="cls-1" d="M770.63,94.18l-.75-1.24-.75-1.24-.76-1.23-.75-1.24L766.86,88l-.75-1.23-.76-1.24-.75-1.24L763.84,83l-.75-1.23-.76-1.24-.75-1.24-.75-1.23-.76-1.24-.75-1.24-.76-1.23-.75-1.24-.76-1.24-.75-1.24-.76-1.23-.75-1.24L754,67l-.75-1.23-.75-1.24-.76-1.24L751,62l-.76-1.24-.75-1.24-.76-1.24L748,57.07l-.76-1.24-.75-1.24-.75-1.23L745,52.12l-.75-1.24-.76-1.23-.75-1.24L742,47.17l-.75-1.24-.76-1.23-.75-1.24-.76-1.24L738.19,41l-.75-1.24-.76-1.24-.75-1.23L735.17,36l-.75-1.24-.76-1.24-.75-1.23-.76-1.24-.75-1.24-.76-1.23-.75-1.24-.75-1.24-.76-1.23-.75-1.24-.76-1.24-4.22-6.93-4.24,6.93-.76,1.24-.75,1.24-.76,1.23-.76,1.24-.75,1.24-.76,1.23-.76,1.24-.75,1.24-.76,1.23-.75,1.24L710.09,36l-.76,1.24-.75,1.23-.76,1.24L707.06,41l-.75,1.23-.76,1.24-.76,1.24L704,45.93l-.76,1.24-.75,1.24-.76,1.24L701,50.88l-.75,1.24-.76,1.24-.76,1.23L698,55.83l-.76,1.24-.75,1.23-.76,1.24L695,60.78,694.21,62l-.76,1.23-.76,1.24-.75,1.24L691.18,67l-.76,1.24-.75,1.24-.76,1.23-.75,1.24-.76,1.24-.76,1.24-.75,1.23-.76,1.24-.76,1.24-.75,1.23-.76,1.24-.76,1.24L681.35,83l-.76,1.24-.75,1.24-.76,1.24L678.32,88l-.75,1.24-3.74,5.9,15.85,0,.68-1,.76-1.24.75-1.24.76-1.23.76-1.24.75-1.24.76-1.23.76-1.24.75-1.24.76-1.24.92-1.38,49,0,.89,1.18.83,1.41.75,1.24.76,1.24.75,1.23.75,1.24.76,1.24.75,1.23.76,1.24.75,1.24.61.95,15.82,0Zm-64-26,1.18-1.85.75-1.21.76-1.22.76-1.21.75-1.21.76-1.21.76-1.22.75-1.21.76-1.21.76-1.22.75-1.21.76-1.21.76-1.21.75-1.22.76-1.21.76-1.21.76-1.21.75-1.22.76-1.21.76-1.21.5-.81.5.81.76,1.21.75,1.21.76,1.22.75,1.21.75,1.21.76,1.21.75,1.22.76,1.21.75,1.21.75,1.21.76,1.22.75,1.21L733,59l.75,1.22.76,1.21.75,1.21.75,1.21.76,1.22.75,1.21,1.11,1.89ZM654.9,37.38c0-.41-.06-.81-.11-1.21s-.1-.81-.17-1.21-.15-.82-.24-1.22-.2-.81-.31-1.21-.25-.81-.38-1.21-.3-.82-.46-1.22-.35-.81-.54-1.21-.41-.81-.63-1.21-.47-.82-.72-1.21-.54-.82-.83-1.22-.62-.82-1-1.21a23.25,23.25,0,0,0-17.84-8.33H574V95.19h13.48l0-.81V62.85l0-.37,31.37,0L638.6,95.19l16.62,0L635.33,62.35l4.92-1.93a21.81,21.81,0,0,0,2.59-1.21,23.06,23.06,0,0,0,2-1.21c.56-.38,1.1-.79,1.62-1.22s.92-.79,1.36-1.21.8-.79,1.18-1.21.69-.8,1-1.21.61-.8.89-1.22.53-.8.78-1.21.46-.8.68-1.21.4-.8.58-1.21.35-.81.51-1.22.29-.8.42-1.21.25-.8.36-1.21.19-.81.28-1.22.15-.8.21-1.21.1-.8.14-1.21.07-.81.09-1.21,0-.66,0-1a1.77,1.77,0,0,0,0-.23C654.94,38.19,654.93,37.78,654.9,37.38Zm-13.44,2.43a9.85,9.85,0,0,1-.2,1.21,10,10,0,0,1-.37,1.21,9.46,9.46,0,0,1-.54,1.21,11,11,0,0,1-.78,1.22A11.94,11.94,0,0,1,637,47.14a17.5,17.5,0,0,1-2.66,1.46,6.09,6.09,0,0,1-2.55.55H587.36l0-.85V29h44.31a9.75,9.75,0,0,1,6.28,2.3,10,10,0,0,1,1.22,1.21,10.2,10.2,0,0,1,.86,1.21,10.08,10.08,0,0,1,.64,1.22,11.49,11.49,0,0,1,.42,1.21,11.8,11.8,0,0,1,.26,1.21,12.08,12.08,0,0,1,.1,1.21c0,.08,0,.15,0,.23A8.21,8.21,0,0,1,641.46,39.81ZM244.64,71.41c0,.21,0,.42,0,.63s0,.39,0,.58c0,.41,0,.81-.06,1.21s-.07.81-.12,1.22-.11.81-.19,1.21-.15.81-.25,1.21-.2.81-.32,1.21-.25.82-.4,1.22-.3.81-.47,1.21-.36.81-.56,1.21-.42.82-.65,1.21-.49.82-.75,1.22-.55.82-.85,1.21-.65.82-1,1.21-.74.83-1.13,1.22-.88.82-1.34,1.21-1,.83-1.57,1.21A22,22,0,0,1,233.07,92a23.45,23.45,0,0,1-2.46,1.22,24.39,24.39,0,0,1-9.56,1.91L163.88,95l8-13.25,49.53.14a9.69,9.69,0,0,0,3.7-.73,9.93,9.93,0,0,0,2.13-1.21,9.79,9.79,0,0,0,1.35-1.22,10.28,10.28,0,0,0,1-1.21,10.59,10.59,0,0,0,1.17-2.42,9.9,9.9,0,0,0,.31-1.22,9.53,9.53,0,0,0,.14-1.21c0-.19,0-.38,0-.58s0-.42,0-.63c0-.41-.08-.82-.15-1.22a10.27,10.27,0,0,0-.32-1.21,8.55,8.55,0,0,0-.5-1.21,9,9,0,0,0-.69-1.21,8.88,8.88,0,0,0-1-1.22,10.5,10.5,0,0,0-1.37-1.21A9.93,9.93,0,0,0,225,62.92a9.55,9.55,0,0,0-3.53-.42L187,62.58a37.31,37.31,0,0,1-5.16-.64A24.19,24.19,0,0,1,178,60.61a21.48,21.48,0,0,1-2.42-1.28c-.67-.37-1.22-.78-1.85-1.21s-1-.84-1.56-1.27-.91-.79-1.34-1.21-.79-.79-1.16-1.21-.68-.8-1-1.21-.6-.8-.88-1.22-.52-.8-.76-1.21-.46-.8-.67-1.21-.4-.8-.58-1.21-.34-.81-.5-1.22-.29-.8-.42-1.21-.23-.8-.34-1.21-.19-.81-.27-1.22-.15-.8-.2-1.21-.11-.8-.14-1.21-.06-.81-.08-1.21,0-.58,0-.87c0-.11,0-.23,0-.35,0-.4,0-.81.05-1.21s.06-.81.11-1.21.11-.81.18-1.21.15-.82.24-1.22.2-.81.32-1.21.24-.81.38-1.21.3-.82.46-1.21.35-.82.54-1.22.41-.81.63-1.21.48-.82.73-1.21.54-.82.83-1.22.62-.82.95-1.21A23.17,23.17,0,0,1,187,15.78l57.69-.1-8.45,13.58-49.24,0a10,10,0,0,0-6.13,2.17,9.52,9.52,0,0,0-1.25,1.21,10.54,10.54,0,0,0-.9,1.21,8.94,8.94,0,0,0-.66,1.22,11.59,11.59,0,0,0-.45,1.21,11.81,11.81,0,0,0-.27,1.21,12.09,12.09,0,0,0-.12,1.21c0,.12,0,.24,0,.35a8.31,8.31,0,0,0,0,.87,12.16,12.16,0,0,0,.18,1.21,8.05,8.05,0,0,0,.36,1.21,9.38,9.38,0,0,0,.52,1.21,9.5,9.5,0,0,0,.75,1.22,9.89,9.89,0,0,0,1,1.21,9.54,9.54,0,0,0,1.48,1.21A14.11,14.11,0,0,0,184,48.52a8.55,8.55,0,0,0,3.1.79l34.29,0a48.94,48.94,0,0,1,5.91.4,16.18,16.18,0,0,1,3.55,1A25,25,0,0,1,233.16,52,21.11,21.11,0,0,1,235,53.22c.53.38,1,.78,1.54,1.21s.89.79,1.31,1.21.76.8,1.12,1.21.68.8,1,1.22.58.8.85,1.21.51.8.75,1.21.45.8.65,1.22.39.8.57,1.21.33.8.48,1.21.27.8.4,1.21.23.81.33,1.22.18.8.26,1.21.13.8.19,1.21.09.81.13,1.21S244.63,71,244.64,71.41ZM532.18,29.28H473.37V15.72h66.76Zm-137,52.56,54,0-8.38,13.19-59.08,0V15.71h13.44V81.84Zm-42.81-43c0,.18,0,.36,0,.54v5.53l0,4.49H339V46.17h0V39.36c0-.18,0-.36,0-.54a9.81,9.81,0,0,0-.88-3.63,9.58,9.58,0,0,0-.66-1.22,9.41,9.41,0,0,0-.89-1.21,10,10,0,0,0-1.22-1.21,10.18,10.18,0,0,0-1.83-1.21,10,10,0,0,0-4.66-1.14H295.13a10.27,10.27,0,0,0-4.74,1.14,9.67,9.67,0,0,0-1.83,1.21,9.88,9.88,0,0,0-1.21,1.21,10.29,10.29,0,0,0-.87,1.21,8.84,8.84,0,0,0-.64,1.22,8.34,8.34,0,0,0-.45,1.21,10.92,10.92,0,0,0-.4,2.42c0,.18,0,.36,0,.54v2.71h0v7.31h-13.4l0-4.49V39.36c0-.18,0-.36,0-.54,0-.4,0-.81.06-1.21s.07-.81.12-1.21.11-.81.18-1.21.16-.82.25-1.22.21-.81.32-1.21.25-.81.39-1.21.3-.82.46-1.21.35-.82.54-1.22.42-.81.64-1.21.47-.82.73-1.21.54-.82.82-1.22.62-.81.95-1.21a23.54,23.54,0,0,1,18.13-8.51h33.65a23.54,23.54,0,0,1,18.13,8.51c.33.4.64.8.94,1.21s.57.8.83,1.22.5.8.73,1.21.43.8.63,1.21.37.81.54,1.22.32.8.47,1.21.27.8.39,1.21.22.81.31,1.21.18.81.25,1.22.14.8.19,1.21.09.8.12,1.21S352.36,38.42,352.37,38.82Zm0,27.1h0v5.65c0,.4,0,.81,0,1.21s-.06.81-.1,1.21-.09.81-.16,1.22-.14.81-.22,1.21-.19.81-.29,1.21-.24.81-.37,1.21-.28.82-.43,1.22-.33.81-.51,1.21-.39.81-.6,1.21-.44.82-.68,1.21-.51.82-.79,1.22-.58.82-.9,1.21-.66.82-1,1.21-.78.82-1.19,1.22-.89.82-1.35,1.21-1.06.83-1.62,1.21a20.62,20.62,0,0,1-2,1.21,22.81,22.81,0,0,1-2.54,1.22,23.78,23.78,0,0,1-3.95,1.21,23.28,23.28,0,0,1-4.9.52H295.13a23.47,23.47,0,0,1-4.92-.52,23,23,0,0,1-6.5-2.43,20.62,20.62,0,0,1-2-1.21c-.56-.38-1.1-.78-1.62-1.21s-.92-.79-1.36-1.21-.81-.8-1.19-1.22-.69-.79-1-1.21-.61-.8-.9-1.21-.53-.8-.78-1.22-.46-.8-.68-1.21-.41-.8-.59-1.21-.35-.8-.51-1.21-.3-.81-.44-1.22-.25-.8-.35-1.21-.21-.8-.29-1.21-.16-.81-.22-1.21-.12-.81-.16-1.22-.07-.8-.09-1.21,0-.75,0-1.13V65.92l0-3.21H285v3.21h0v5.73a10.55,10.55,0,0,0,.07,1.13,9.56,9.56,0,0,0,.22,1.21,10.11,10.11,0,0,0,.37,1.22,9.31,9.31,0,0,0,.54,1.21,9.52,9.52,0,0,0,.77,1.21,9.15,9.15,0,0,0,1,1.21,9.95,9.95,0,0,0,3.92,2.43,10,10,0,0,0,3.25.54h33.65a10,10,0,0,0,3.25-.54A9.95,9.95,0,0,0,336,78.84a10,10,0,0,0,1-1.21,9.4,9.4,0,0,0,1.31-2.42,10.11,10.11,0,0,0,.37-1.22,11.75,11.75,0,0,0,.22-1.21,10.55,10.55,0,0,0,.06-1.13v-9h13.41ZM486.88,82l57.26,0L536,95.16H473.46V48.92l-.06-6.35,62.46,0,0,13.51-49,0,0,6.24V82ZM40.69,81.61c0-6.79,6.25-12.28,14-12.28h46.69L88.79,81.78Zm10.79,20.15c2.75-7.93,10.61-13.29,19.44-13.29H81.8L68.41,101.8ZM0,62.55,13.13,49.32l107.78.1-13,13.14ZM80.58,29.19c0,7.34-6.25,13.29-14,13.29H19.94L33.35,29.22ZM70.22,9.36c-2.75,7.93-10.61,13.29-19.44,13.29H39.91L53.13,9.38Z"></path>
  <rect class="cls-2" x="853.1" y="9.11" width="3" height="93"></rect>
  <path class="cls-3" d="M950.32,26.67q11.49-11.39,28.32-11.38t28.22,11.38q11.39,11.38,11.38,28.33T1006.8,83.32q-11.43,11.39-28.27,11.39T950.26,83.32Q938.83,71.94,938.82,55T950.32,26.67ZM978.53,24a29.27,29.27,0,0,0-21.67,8.91A30.24,30.24,0,0,0,948.06,55a30.24,30.24,0,0,0,8.8,22.11,30.94,30.94,0,0,0,43.4,0Q1009,68.31,1009,55t-8.74-22.17A29.32,29.32,0,0,0,978.53,24Z"></path>
  <path class="cls-3" d="M1101.29,31.79q9.57,0,14.85,5.88t5.28,16.56V93.5h-9.13V55.88q0-15.41-13.64-15.4-8.25,0-12.65,6.16t-4.4,15.84l.11,31h-9.24V55.88q0-15.41-13.64-15.4-8.13,0-12.54,6.16t-4.4,15.84v31h-9.13V33h9.13V44.44q6.39-12.64,19.69-12.65,7.38,0,12.21,3.57a18.44,18.44,0,0,1,6.71,10.29Q1086.89,31.79,1101.29,31.79Z"></path>
  <path class="cls-3" d="M1168,31.79q10.23,0,16.06,6.16t5.83,17.16V93.5h-9.13V56.87q0-16.4-15.29-16.39-9.14,0-14.13,5.94t-5,16.06v31h-9.13V33h9.13V45Q1152.88,31.79,1168,31.79Z"></path>
  <path class="cls-3" d="M1205.52,8.14a6.8,6.8,0,0,1,9.13,0,5.73,5.73,0,0,1,1.81,4.29,5.87,5.87,0,0,1-1.81,4.4,6.8,6.8,0,0,1-9.13,0,5.88,5.88,0,0,1-1.82-4.4A5.74,5.74,0,0,1,1205.52,8.14Zm-.06,85.36V33h9.13V93.5Z"></path>
  <path class="cls-3" d="M1273.55,83.27l1.65,7.59a34.39,34.39,0,0,1-16.39,3.85q-10,0-15.84-6.33t-5.83-18V41.58h-11.66V33h11.66V18.48l9.13-2V33h27.17v8.58h-27.17V70q0,16.28,14.08,16.28Q1265.41,86.24,1273.55,83.27Z"></path>
  <path class="cls-3" d="M1318.21,31.79A29.52,29.52,0,0,1,1322,32v9.35a34,34,0,0,0-3.85-.22q-9.8,0-15.62,6.21t-5.83,17.55V93.5h-9.13V33h9.13V46.53Q1302.59,31.79,1318.21,31.79Z"></path>
  <path class="cls-3" d="M1381.46,33h9.13V93.5h-9.13V81.29a26.9,26.9,0,0,1-9.63,9.84,27.79,27.79,0,0,1-34-5.28q-8-8.85-8-22.6t8-22.61a26.78,26.78,0,0,1,43.62,4.79ZM1359.9,86a20.58,20.58,0,0,0,15.51-6.44q6.16-6.43,6.16-16.33t-6.16-16.34a20.57,20.57,0,0,0-15.51-6.43,19.24,19.24,0,0,0-15,6.43q-5.78,6.44-5.77,16.34t5.83,16.39A19.37,19.37,0,0,0,1359.9,86Z"></path>
  <path class="cls-3" d="M1435.69,94.71a30.24,30.24,0,0,1-22.28-9q-9-9-9-22.49t9-22.5a30.27,30.27,0,0,1,22.28-9,30.9,30.9,0,0,1,18.92,6.05,27,27,0,0,1,10.45,16.28h-9.46A19.33,19.33,0,0,0,1448.12,44a21.31,21.31,0,0,0-12.43-3.74,20.92,20.92,0,0,0-15.79,6.49q-6.21,6.49-6.21,16.5t6.21,16.5a22.4,22.4,0,0,0,28.16,2.75,20,20,0,0,0,7.54-10.12h9.46a27.34,27.34,0,0,1-10.56,16.33A30.87,30.87,0,0,1,1435.69,94.71Z"></path>
  <path class="cls-3" d="M1503.45,94.71q-11.88,0-19.69-5.28a22,22,0,0,1-9.57-14.85h9.35q1.76,6.17,6.54,8.8T1503.45,86q6.93,0,11.27-2.37t4.35-6.65a5.6,5.6,0,0,0-2.2-4.46,13.66,13.66,0,0,0-4.73-2.58q-2.54-.76-8.69-2.31c-1-.22-1.69-.4-2.2-.55q-13.65-3.4-18.81-6.71t-5.17-10.34A15.58,15.58,0,0,1,1484,36.63q6.77-4.85,17.77-4.84,10.56,0,17.21,4.56a20.44,20.44,0,0,1,8.53,12.82h-9.24q-3.3-8.69-16.28-8.69-7.15,0-11.33,2.47t-4.18,6.44a5.24,5.24,0,0,0,3.41,5q3.4,1.61,13.64,4.24,4.83,1.21,7.31,1.87t5.94,1.87a24.28,24.28,0,0,1,5.12,2.31,25.09,25.09,0,0,1,3.41,2.8,9.06,9.06,0,0,1,2.42,3.85,16.7,16.7,0,0,1,.66,4.9,15.53,15.53,0,0,1-7.1,13.69Q1514.23,94.71,1503.45,94.71Z"></path>
  <path class="cls-4" d="M178.9,127.36h-13v8.18H178v2.84H165.91v11.34h-3v-25.2h16Z"></path>
  <path class="cls-4" d="M190.46,149.72V122h3v27.72Z"></path>
  <path class="cls-4" d="M215.19,129.52a9.28,9.28,0,0,1,7.35,3.14,11.15,11.15,0,0,1,2.55,8.06h-17a6.81,6.81,0,0,0,2.19,4.83,7.28,7.28,0,0,0,5,1.76q4.42,0,6.19-3.46h3.09a9.61,9.61,0,0,1-3.7,4.67,10.36,10.36,0,0,1-5.69,1.6,9.79,9.79,0,0,1-10.15-10.23,10.22,10.22,0,0,1,2.84-7.43A9.68,9.68,0,0,1,215.19,129.52Zm0,2.81a6.85,6.85,0,0,0-4.52,1.55,7.07,7.07,0,0,0-2.39,4h13.57a7,7,0,0,0-2.27-4A6.45,6.45,0,0,0,215.19,132.33Z"></path>
  <path class="cls-4" d="M246,129.52a9.28,9.28,0,0,1,7.35,3.14,11.15,11.15,0,0,1,2.55,8.06h-17a6.81,6.81,0,0,0,2.19,4.83,7.28,7.28,0,0,0,5,1.76q4.42,0,6.19-3.46h3.09a9.61,9.61,0,0,1-3.7,4.67,10.36,10.36,0,0,1-5.69,1.6,9.79,9.79,0,0,1-10.15-10.23,10.22,10.22,0,0,1,2.84-7.43A9.68,9.68,0,0,1,246,129.52Zm0,2.81a6.85,6.85,0,0,0-4.52,1.55,7.07,7.07,0,0,0-2.39,4h13.57a7,7,0,0,0-2.27-4A6.45,6.45,0,0,0,246,132.33Z"></path>
  <path class="cls-4" d="M281.43,146.37l.54,2.49a11.25,11.25,0,0,1-5.36,1.26,6.72,6.72,0,0,1-5.19-2.07,8.38,8.38,0,0,1-1.9-5.89v-9.43H265.7v-2.81h3.82v-4.75l3-.65v5.4h8.9v2.81h-8.9V142q0,5.32,4.61,5.33A13.26,13.26,0,0,0,281.43,146.37Z"></path>
  <path class="cls-4" d="M320.46,135.47c1.72.38,3.09.73,4.08,1a14.32,14.32,0,0,1,2.9,1.28,4.85,4.85,0,0,1,2,2,6.61,6.61,0,0,1,.59,2.92,6.36,6.36,0,0,1-2.66,5.53,11,11,0,0,1-6.55,1.89q-4.76,0-7.4-2.2a9.42,9.42,0,0,1-3.3-5.76h3q1.26,5.15,7.59,5.15a7.88,7.88,0,0,0,4.61-1.17,3.85,3.85,0,0,0,1.66-3.33,2.81,2.81,0,0,0-1.51-2.7,26.86,26.86,0,0,0-5.73-1.73c-1.51-.33-2.74-.66-3.69-1a14,14,0,0,1-2.73-1.24,4.94,4.94,0,0,1-1.93-1.95,5.92,5.92,0,0,1-.61-2.79,6.3,6.3,0,0,1,2.61-5.36,10.42,10.42,0,0,1,6.42-1.95A10.88,10.88,0,0,1,326.5,126a8.34,8.34,0,0,1,3.17,4.86h-3q-1.51-3.89-6.77-3.89a7.41,7.41,0,0,0-4.45,1.21,3.86,3.86,0,0,0-1.63,3.29,2.53,2.53,0,0,0,1.38,2.34A21.87,21.87,0,0,0,320.46,135.47Z"></path>
  <path class="cls-4" d="M350.88,129.52a10.13,10.13,0,1,1-7.22,3A9.92,9.92,0,0,1,350.88,129.52Zm5.11,5a6.92,6.92,0,0,0-5.11-2.11,6.85,6.85,0,0,0-5.1,2.11,7.94,7.94,0,0,0,0,10.69,7.28,7.28,0,0,0,10.23,0,7.36,7.36,0,0,0,2.06-5.35A7.26,7.26,0,0,0,356,134.48Z"></path>
  <path class="cls-4" d="M372.91,149.72V122h3v27.72Z"></path>
  <path class="cls-4" d="M402.21,129.92h3v19.8h-3V145.8a7.43,7.43,0,0,1-7.06,4.32,6.64,6.64,0,0,1-5.16-2,8,8,0,0,1-1.86-5.62V129.92h3v12q0,5.35,4.9,5.36a5.64,5.64,0,0,0,4.55-1.94,7.92,7.92,0,0,0,1.64-5.26Z"></path>
  <path class="cls-4" d="M431.62,146.37l.54,2.49a11.25,11.25,0,0,1-5.36,1.26,6.72,6.72,0,0,1-5.19-2.07,8.38,8.38,0,0,1-1.9-5.89v-9.43h-3.82v-2.81h3.82v-4.75l3-.65v5.4h8.9v2.81h-8.9V142q0,5.32,4.61,5.33A13.26,13.26,0,0,0,431.62,146.37Z"></path>
  <path class="cls-4" d="M443.41,121.78a2.09,2.09,0,0,1,1.5-.57,2.07,2.07,0,0,1,1.49.57,2,2,0,0,1,0,2.85,2.07,2.07,0,0,1-1.49.57,2.09,2.09,0,0,1-1.5-.57,2,2,0,0,1,0-2.85Zm0,27.94v-19.8h3v19.8Z"></path>
  <path class="cls-4" d="M468.27,129.52a10.13,10.13,0,1,1-7.22,3A9.9,9.9,0,0,1,468.27,129.52Zm5.11,5a7.22,7.22,0,0,0-10.2,0,7.94,7.94,0,0,0,0,10.69,7.27,7.27,0,0,0,10.22,0,7.91,7.91,0,0,0,0-10.69Z"></path>
  <path class="cls-4" d="M500.27,129.52a6.9,6.9,0,0,1,5.26,2,7.87,7.87,0,0,1,1.91,5.62v12.56h-3v-12q0-5.35-5-5.36a5.73,5.73,0,0,0-4.63,1.94,7.92,7.92,0,0,0-1.64,5.26v10.15h-3v-19.8h3v3.93A7.37,7.37,0,0,1,500.27,129.52Z"></path>
  <path class="cls-4" d="M528.14,150.12a11.31,11.31,0,0,1-6.45-1.73,7.22,7.22,0,0,1-3.13-4.86h3.06a4.58,4.58,0,0,0,2.14,2.88,9.27,9.27,0,0,0,4.38.86,7.66,7.66,0,0,0,3.69-.77,2.39,2.39,0,0,0,1.42-2.18,1.83,1.83,0,0,0-.72-1.46A4.61,4.61,0,0,0,531,142c-.55-.17-1.5-.42-2.84-.76l-.72-.18a23.23,23.23,0,0,1-6.16-2.19,3.74,3.74,0,0,1-1.69-3.39,5.11,5.11,0,0,1,2.21-4.39,11.38,11.38,0,0,1,11.45-.09,6.7,6.7,0,0,1,2.79,4.19h-3q-1.08-2.84-5.33-2.84a7.27,7.27,0,0,0-3.71.81,2.4,2.4,0,0,0-1.37,2.1,1.72,1.72,0,0,0,1.12,1.64,30.7,30.7,0,0,0,4.46,1.39l2.4.61c.54.14,1.19.35,1.94.61a8.07,8.07,0,0,1,1.68.76,7.93,7.93,0,0,1,1.11.92,2.83,2.83,0,0,1,.79,1.26,5.25,5.25,0,0,1,.22,1.6,5.07,5.07,0,0,1-2.32,4.48A10.2,10.2,0,0,1,528.14,150.12Z"></path>
</svg>
