<svg version="1.1" id="Layer_1" xmlns="http://www.w3.org/2000/svg" xmlns:xlink="http://www.w3.org/1999/xlink" x="0px" y="0px"
	 viewBox="0 0 400 149.95" style="enable-background:new 0 0 400 149.95;" xml:space="preserve">
<style type="text/css">
	.st0{fill:#0091EA;}
	.st1{enable-background:new    ;}
</style>
<g>
	<path class="st0" d="M97.87,93.94c13.35-4.81,28.57-18.16,28.57-42.99c0-26.43-17.89-47.53-49.67-47.53H5.21v143.12h36.58v-48.6
		h18.96l24.03,48.6h42.19L97.87,93.94z M71.16,66.43H42.06V34.39h29.11c9.61,0,17.89,6.14,17.89,16.02S80.78,66.43,71.16,66.43z"/>
	<path class="st0" d="M276.5,98.47c10.41,10.41,26.17,18.96,45.66,18.96c12.55,0,20.29-5.34,20.29-12.28
		c0-8.28-9.35-11.48-24.57-14.69c-23.5-4.81-56.61-10.68-56.61-44.59c0-24.03,20.29-44.86,57.14-44.86
		c22.96,0,42.99,6.94,58.21,20.03l-20.03,26.43c-12.02-9.88-27.77-14.69-40.32-14.69c-12.28,0-16.82,4.81-16.82,11.21
		c0,7.48,8.81,10.15,24.57,13.08c23.5,4.81,56.07,11.75,56.07,44.06c0,28.84-21.36,47.8-59.55,47.8c-28.84,0-49.13-9.08-63.55-22.7
		L276.5,98.47L276.5,98.47z"/>
	<g class="st1">
		<path class="st0" d="M377.7,8.76h-2.94V6.89h7.74v1.87h-2.94v8.01h-2.14V8.76H377.7z"/>
		<path class="st0" d="M392.39,9.56l-2.67,6.94h-0.8l-2.67-6.94v7.21h-2.14V6.89h2.94l2.4,6.14l2.4-6.14h2.94v9.88h-2.14V9.56
			H392.39z"/>
	</g>
</g>
<polygon class="st0" points="253.54,3.42 213.48,3.42 176.64,3.42 136.58,3.42 136.58,35.46 176.64,35.46 176.64,146.27 
	213.48,146.27 213.48,35.46 253.54,35.46 "/>
</svg>